<svg viewBox="0 0 909 1286" version="1.1" xmlns="http://www.w3.org/2000/svg">
<defs>
<style>
.g0{fill:none;stroke:#5D5D5D;stroke-width:1.369;stroke-miterlimit:10;}
</style>
<path id="f0_3" transform="scale(0.001 -0.001)" d="M144 0C64 0 0 64 0 144V753c0 11 8 18 17 18c4 0 8-1 12-4c67-52 156-118 460-339c63-46 169-142 275-142c1 0 2 0 2 0c106 0 212 98 273 142c304 221 393 287 460 339c3 3 7 4 11 4c9 0 18-7 18-18V144c0-80-64-144-144-144ZM762 382c-69 0-167 87-217 124C150 793 119 817 28 889C11 903 0 924 0 946v56c0 80 64 144 144 144H1384c80 0 144-64 144-144V946c0-22-11-43-28-57c-91-72-122-96-518-383c-50-37-148-124-216-124c-1 0-2 0-2 0q-1 0-2 0Z"/>
<path id="f0_2" transform="scale(0.001 -0.001)" d="M335-94c-26 0-48 22-48 48V442L837 894c6 4 14 9 23 9c9 0 15-5 22-9l551-452V-46c0-26-23-48-49-48H1050c-26 0-48 22-48 48V238c0 26-21 49-47 49H764c-26 0-47-23-47-49V-46c0-26-22-48-48-48ZM112 431c-11 0-22 4-28 12L8 536c-5 6-8 14-8 23c0 11 5 22 12 28l756 621c25 20 57 33 92 33c35 0 66-13 90-33l268-220v217c0 20 15 36 35 36h168c20 0 35-16 35-36V791l249-204c8-6 14-17 14-28c0-9-3-17-8-23l-76-93c-6-8-17-12-28-12c-9 0-17 3-23 7L882 1018c-7 4-13 7-22 7c-9 0-17-3-23-7L134 438c-6-4-13-7-22-7Z"/>
<path id="f1_2" transform="scale(0.001 -0.001)" d="M497 273c6 0 9 4 9 8c0 5-5 8-11 8c-6 0-11-3-11-8c0-4 6-8 13-8Zm35 5c1 0 2 0 3 0c6 2 10 5 9 9c0 5-6 6-12 6c-6-1-9-4-9-9c0-4 4-6 9-6Zm-73 2c3 0 6 1 7 4c2 5-3 9-9 11c-1 0-3 0-4 0c-4 0-7-1-8-5c-2-4 3-7 9-9c1 0 3-1 5-1Zm-35 19c2 0 4 1 5 2c3 3 2 8-3 12c-2 3-5 4-7 4c-2 0-4-1-5-2c-3-3-3-8 2-12c2-3 5-4 8-4Zm-25 29c1 0 2 0 3 0c3 4 3 8 0 13c-2 3-5 4-7 4c-2 0-3 0-4-1c-3-2-3-6 0-11c2-3 6-5 8-5Zm-21 28c1 0 3 0 4 2c3 1 1 4-2 9c-2 2-4 4-6 4c-1 0-2 0-3-1c-3-2-3-6 0-11c2-2 5-3 7-3Zm-20 20c2 0 3 1 4 3c2 3 0 6-4 8c-2 0-3 0-4 0c-2 0-3-1-4-2c-2-3 0-6 4-8c2 0 3-1 4-1ZM820 95c3 0 5 1 8 1c197 66 330 254 330 472c0 274-223 483-496 483c-274 0-483-209-483-483c0-218 137-406 334-472c3 0 6-1 9-1c19 0 25 15 25 26V241c0 0-23-5-53-5c-42 0-98 11-115 63c0 0-23 59-55 74c0 0-44 30 4 30c0 0 48-4 75-52c24-42 57-54 87-54c24 0 46 8 58 13c5 32 17 55 31 67c-110 13-221 28-221 217c0 55 15 83 47 118c-6 14-23 66 4 134c4 1 8 2 12 2c45 0 124-55 124-55c40 11 83 15 126 15c42 0 84-4 123-15c0 0 80 55 125 55c4 0 8-1 11-2c28-68 10-122 5-134c32-35 52-63 52-118c0-191-118-204-228-217c19-15 35-45 35-91c0-68-1-148-1-165c0-11 8-26 27-26ZM144-94C64-94 0-31 0 47V1098c0 80 64 143 144 143H1193c80 0 144-63 144-143V47c0-78-64-141-144-141Z"/>
<path id="f1_3" transform="scale(0.001 -0.001)" d="M481-46C304-46 139 5 0 93c24-3 49-4 75-4c147 0 283 50 389 134c-137 3-253 93-293 217c20-3 40-5 60-5c27 0 56 5 82 11C170 475 63 600 63 753v5c41-23 88-38 140-40C119 775 64 869 64 978c0 58 15 113 43 159C261 947 492 822 752 808c-5 23-8 48-8 72c0 173 139 313 313 313c90 0 173-38 229-99c71 14 139 41 199 76c-23-73-72-134-137-172c62 6 123 24 180 49c-43-63-96-118-158-162c2-14 2-28 2-42c0-414-315-889-891-889Z"/>
</defs>
<g fill="#333">
<use href="#f0_3" transform="matrix(10 0 0 10 190.4 79)"/>
<use href="#f0_2" transform="matrix(10 0 0 10 387.1 79)"/>
<use href="#f1_2" transform="matrix(10 0 0 10 539.9 79)"/>
<use href="#f1_3" transform="matrix(10 0 0 10 634.8 79)"/>
</g>
<path d="M128.9 123.6H845.5M244 202.8H845.5M203.6 391.3H845.5M260.1 575.5H845.5M261 829.9H845.5" class="g0"/>
</svg>